<?xml version="1.0" standalone="no"?>
<!DOCTYPE svg PUBLIC "-//W3C//DTD SVG 20010904//EN"
 "http://www.w3.org/TR/2001/REC-SVG-20010904/DTD/svg10.dtd">
<svg version="1.0" xmlns="http://www.w3.org/2000/svg"
 width="1200.000000pt" height="1200.000000pt" viewBox="0 0 1200.000000 1200.000000"
 preserveAspectRatio="xMidYMid meet">

<g transform="translate(0.000000,1200.000000) scale(0.100000,-0.100000)"
fill="#000000" stroke="none">
<path d="M5828 9657 c-76 -45 -138 -85 -138 -90 0 -7 209 -317 230 -340 4 -4
55 94 114 219 58 125 105 228 104 229 -26 24 -116 65 -141 64 -21 0 -79 -28
-169 -82z"/>
<path d="M6166 9588 c-13 -29 -62 -136 -110 -237 -47 -101 -86 -187 -86 -191
0 -5 120 -183 266 -397 147 -213 272 -396 279 -406 11 -16 41 35 239 397 124
228 226 418 226 423 0 6 -751 450 -781 461 -5 2 -19 -20 -33 -50z"/>
<path d="M4910 9121 l-715 -418 -3 -99 -2 -99 446 -544 447 -543 51 108 c29
60 211 450 406 867 195 416 357 757 360 757 3 0 12 -12 21 -26 l16 -26 12 30
c11 26 10 34 -6 58 l-18 28 -9 -27 c-6 -15 -13 -27 -17 -27 -4 0 -65 85 -136
190 -70 104 -130 189 -133 189 -3 0 -327 -188 -720 -418z"/>
<path d="M7026 9127 c-8 -12 -112 -202 -231 -422 -119 -220 -221 -404 -226
-410 -6 -6 -15 0 -26 14 l-16 24 -14 -27 c-12 -23 -11 -29 3 -52 l17 -26 15
27 c12 23 16 25 26 14 7 -8 210 -302 451 -654 240 -352 443 -646 449 -653 9
-10 47 52 174 285 l162 298 -2 579 -3 579 -260 151 c-143 84 -315 184 -383
224 -122 71 -122 71 -136 49z"/>
<path d="M5530 8230 c-221 -473 -406 -860 -409 -860 -3 0 -12 10 -20 22 l-13
22 -15 -27 c-7 -15 -15 -27 -18 -27 -2 0 -195 234 -430 520 -234 286 -428 520
-431 520 -2 0 -4 -408 -4 -907 l1 -908 190 -110 c105 -60 195 -110 200 -110 5
0 112 220 238 488 126 268 232 491 235 494 4 4 14 -4 23 -16 l16 -24 14 27 c8
15 17 24 22 22 4 -3 122 -144 262 -315 192 -234 257 -307 265 -298 16 18 834
1524 834 1536 0 10 -520 774 -544 799 -10 10 -95 -164 -416 -848z"/>
<path d="M6492 8148 c-46 -84 -388 -713 -630 -1158 -91 -168 -168 -307 -170
-310 -2 -3 -12 5 -21 17 l-18 22 -19 -24 -19 -24 -255 314 c-140 172 -257 314
-260 314 -6 1 -462 -970 -458 -974 9 -9 591 -345 597 -345 3 0 89 153 190 340
101 187 188 340 191 340 4 0 13 -7 20 -15 17 -20 27 -19 35 6 4 11 11 19 15
17 5 -2 172 -201 370 -443 199 -242 367 -439 373 -437 7 2 147 82 312 179
l301 175 198 364 c109 201 202 367 207 369 4 3 14 -4 22 -15 14 -20 14 -20 31
6 l18 26 104 -154 c58 -84 109 -159 114 -167 6 -12 13 -12 39 -1 l31 12 0 417
c0 404 -1 415 -18 386 -10 -16 -73 -132 -141 -257 -68 -126 -128 -228 -132
-228 -5 0 -14 9 -21 20 -12 18 -13 18 -29 -6 l-17 -26 -44 64 c-25 34 -229
331 -453 658 -224 327 -411 599 -415 603 -4 5 -26 -24 -48 -65z"/>
<path d="M7318 6518 c-91 -167 -164 -305 -162 -307 2 -2 124 68 273 154 177
103 268 162 263 169 -45 72 -195 286 -201 286 -4 0 -82 -136 -173 -302z"/>
<path d="M5517 6358 c-75 -139 -157 -289 -181 -333 l-44 -80 338 -198 c244
-142 347 -197 370 -197 21 0 85 31 200 98 93 53 168 100 167 104 -4 13 -699
858 -706 858 -4 0 -69 -114 -144 -252z"/>
<path d="M3422 4577 c2 -8 55 -179 118 -381 l115 -367 69 3 68 3 94 300 c52
165 105 335 118 378 l24 77 -62 0 -62 0 -89 -300 c-48 -165 -90 -298 -92 -296
-2 1 -43 135 -92 297 l-88 294 -62 3 c-50 2 -62 0 -59 -11z"/>
<path d="M4390 4515 l0 -76 73 3 72 3 3 73 3 72 -75 0 -76 0 0 -75z"/>
<path d="M5850 4515 l0 -76 73 3 72 3 3 73 3 72 -75 0 -76 0 0 -75z"/>
<path d="M5101 4379 c-58 -11 -128 -53 -146 -89 -21 -40 -19 -109 4 -146 25
-42 85 -67 220 -93 62 -12 122 -26 132 -32 25 -13 24 -41 -2 -65 -18 -16 -37
-19 -118 -19 -84 0 -103 3 -155 28 -32 15 -62 27 -67 27 -5 0 -19 -20 -31 -46
-26 -52 -27 -51 62 -85 151 -57 322 -47 398 24 78 73 66 189 -25 235 -21 11
-96 31 -168 45 -136 27 -164 42 -145 77 5 10 24 23 41 29 45 16 157 13 204 -5
22 -8 47 -18 55 -20 11 -4 22 7 35 33 11 21 21 41 22 44 5 8 -86 48 -137 59
-53 11 -118 11 -179 -1z"/>
<path d="M6567 4376 c-70 -19 -125 -63 -161 -126 -28 -50 -31 -63 -31 -145 0
-82 3 -95 31 -145 108 -193 416 -181 508 20 28 63 28 187 0 250 -26 57 -77
108 -131 132 -56 25 -155 31 -216 14z m186 -129 c50 -38 70 -87 65 -158 -7
-96 -60 -150 -155 -157 -48 -3 -64 0 -92 20 -62 42 -76 71 -76 153 0 82 14
111 76 153 47 33 132 28 182 -11z"/>
<path d="M7388 4380 c-45 -14 -85 -48 -107 -92 l-21 -43 0 68 0 67 -60 0 -60
0 0 -275 0 -275 59 0 59 0 4 168 c3 147 5 171 24 202 45 77 135 104 191 56
l28 -24 3 -201 4 -201 60 0 60 0 -3 208 c-4 197 -5 209 -29 257 -39 77 -124
112 -212 85z"/>
<path d="M4280 4325 l0 -55 60 0 60 0 0 -165 0 -165 -60 0 -60 0 0 -55 0 -55
185 0 185 0 0 55 0 55 -65 0 -65 0 0 220 0 220 -120 0 -120 0 0 -55z"/>
<path d="M5740 4325 l0 -55 60 0 60 0 0 -165 0 -165 -60 0 -60 0 0 -55 0 -55
185 0 185 0 0 55 0 55 -65 0 -65 0 0 220 0 220 -120 0 -120 0 0 -55z"/>
<path d="M8050 3905 l0 -75 74 0 74 0 1 75 1 75 -75 0 -75 0 0 -75z"/>
<path d="M1910 3113 c0 -5 20 -123 45 -263 25 -140 45 -259 45 -263 0 -5 14
-7 32 -5 l32 3 25 122 c14 67 29 124 32 127 3 3 13 -36 23 -87 30 -161 33
-167 66 -167 17 0 30 2 30 3 0 2 20 117 45 256 25 139 45 259 45 267 0 8 -10
14 -24 14 -28 0 -25 14 -67 -243 -18 -109 -36 -193 -40 -185 -3 7 -17 70 -30
141 -22 124 -23 127 -48 127 -26 0 -27 -2 -50 -132 -13 -73 -26 -137 -29 -143
-3 -5 -20 74 -37 175 -48 282 -42 260 -70 260 -14 0 -25 -3 -25 -7z"/>
<path d="M5990 3113 c0 -5 20 -123 45 -263 25 -140 45 -259 45 -263 0 -5 14
-7 32 -5 l32 3 25 122 c14 67 29 124 32 127 3 3 13 -36 23 -87 30 -161 33
-167 66 -167 17 0 30 2 30 3 0 2 20 117 45 256 25 139 45 259 45 267 0 8 -10
14 -24 14 -28 0 -25 14 -67 -243 -18 -109 -36 -193 -40 -185 -3 7 -17 70 -30
141 -22 124 -23 127 -48 127 -26 0 -27 -2 -50 -132 -13 -73 -26 -137 -29 -143
-3 -5 -20 74 -37 175 -48 282 -42 260 -70 260 -14 0 -25 -3 -25 -7z"/>
<path d="M8210 3085 c0 -33 2 -35 35 -35 33 0 35 2 35 35 0 33 -2 35 -35 35
-33 0 -35 -2 -35 -35z"/>
<path d="M8640 3095 c0 -23 4 -25 45 -25 l45 0 0 -220 0 -220 -45 0 c-41 0
-45 -2 -45 -25 l0 -25 110 0 110 0 0 25 c0 23 -4 25 -40 25 l-40 0 0 245 0
245 -70 0 c-68 0 -70 -1 -70 -25z"/>
<path d="M9150 3095 c0 -23 4 -25 45 -25 l45 0 0 -220 0 -220 -45 0 c-41 0
-45 -2 -45 -25 l0 -25 110 0 110 0 0 25 c0 23 -4 25 -40 25 l-40 0 0 245 0
245 -70 0 c-68 0 -70 -1 -70 -25z"/>
<path d="M2565 2955 c-71 -26 -125 -105 -125 -185 0 -122 111 -213 236 -194
44 6 124 55 124 74 0 22 -30 21 -61 -1 -41 -29 -124 -37 -165 -16 -39 20 -63
48 -74 86 l-9 31 165 0 164 0 0 37 c0 52 -36 120 -79 148 -47 31 -123 40 -176
20z m143 -55 c27 -17 62 -70 62 -95 0 -3 -61 -5 -135 -5 -127 0 -135 1 -135
19 0 24 46 80 74 91 38 16 100 11 134 -10z"/>
<path d="M3625 2965 c-5 -2 -22 -6 -37 -9 -49 -11 -96 -63 -114 -124 -43 -148
71 -281 220 -256 68 11 137 58 121 83 -9 16 -20 14 -61 -14 -70 -48 -182 -26
-217 42 -39 76 -28 152 28 202 65 57 168 36 202 -41 11 -24 24 -38 35 -38 16
0 18 9 18 75 0 68 -2 75 -20 75 -15 0 -20 -7 -20 -27 0 -24 -1 -25 -18 -10
-35 32 -104 53 -137 42z"/>
<path d="M4097 2960 c-45 -12 -97 -37 -97 -48 0 -23 23 -29 53 -14 18 9 57 18
88 20 85 6 139 -29 139 -90 0 -22 -3 -23 -87 -23 -148 0 -218 -39 -218 -122 0
-37 5 -49 31 -72 34 -31 102 -47 150 -35 36 8 104 45 104 56 0 4 5 8 10 8 6 0
10 -13 10 -30 0 -25 4 -30 25 -30 l25 0 0 143 c0 158 -10 191 -68 221 -38 20
-118 27 -165 16z m183 -220 c0 -66 -72 -120 -160 -120 -41 0 -56 5 -75 25 -28
27 -30 37 -14 66 17 33 67 48 162 49 81 0 87 -1 87 -20z"/>
<path d="M4653 2959 c-17 -5 -48 -28 -67 -51 l-36 -42 0 47 c0 43 -2 47 -25
47 l-25 0 0 -190 0 -190 24 0 c23 0 24 2 28 113 3 93 8 119 27 153 43 76 133
100 182 48 23 -24 24 -33 27 -170 l3 -144 26 0 25 0 -4 153 c-3 140 -5 155
-26 184 -14 20 -37 36 -60 43 -43 12 -56 11 -99 -1z"/>
<path d="M6645 2955 c-71 -26 -125 -105 -125 -185 0 -122 111 -213 236 -194
44 6 124 55 124 74 0 22 -30 21 -61 -1 -41 -29 -124 -37 -165 -16 -39 20 -63
48 -74 86 l-9 31 165 0 164 0 0 37 c0 52 -36 120 -79 148 -47 31 -123 40 -176
20z m143 -55 c27 -17 62 -70 62 -95 0 -3 -61 -5 -135 -5 -127 0 -135 1 -135
19 0 24 46 80 74 91 38 16 100 11 134 -10z"/>
<path d="M7534 2943 c3 -10 19 -83 35 -163 43 -211 39 -200 71 -200 33 0 31
-5 61 148 12 67 26 122 30 122 3 0 19 -61 34 -135 l28 -135 32 0 31 0 34 173
c18 94 35 180 38 190 3 13 -2 17 -21 17 -30 0 -29 4 -59 -167 -12 -73 -25
-129 -29 -125 -3 4 -19 71 -34 150 -28 142 -28 143 -54 140 -24 -3 -26 -8 -55
-152 -18 -93 -32 -142 -36 -130 -4 10 -17 79 -30 152 l-24 132 -29 0 c-22 0
-27 -4 -23 -17z"/>
<path d="M8130 2935 c0 -23 4 -25 45 -25 l45 0 0 -140 0 -140 -45 0 c-41 0
-45 -2 -45 -25 l0 -25 110 0 110 0 0 25 c0 23 -4 25 -40 25 l-40 0 0 165 0
165 -70 0 c-68 0 -70 -1 -70 -25z"/>
<path d="M5165 2648 c-3 -7 -20 -59 -39 -115 -30 -90 -33 -103 -18 -103 12 0
34 33 70 105 28 58 52 110 52 115 0 15 -60 12 -65 -2z"/>
<path d="M9740 2620 c0 -39 1 -40 35 -40 34 0 35 1 35 40 0 39 -1 40 -35 40
-34 0 -35 -1 -35 -40z"/>
</g>
</svg>
